{"title":"Jean Claude Van Johnson S01E00 Pilot 1080p WEBRip DD5.1 x265","uid":15600213,"size":528647630,"categoryP":"video","categoryS":"hd___tv_shows","magnet":"?xt=urn:btih:4d54e699fa7132ca5942c88f8b559fd20260c415&amp;dn=Jean+Claude+Van+Johnson+S01E00+Pilot+1080p+WEBRip+DD5.1+x265&amp;tr=udp%3A%2F%2Ftracker.leechers-paradise.org%3A6969&amp;tr=udp%3A%2F%2Fzer0day.ch%3A1337&amp;tr=udp%3A%2F%2Fopen.demonii.com%3A1337&amp;tr=udp%3A%2F%2Ftracker.coppersurfer.tk%3A6969&amp;tr=udp%3A%2F%2Fexodus.desync.com%3A6969","seeders":25,"leechers":1,"uploader":"nayhtut","files":1,"time":1471627694,"description":"[Screenshots]\r\n \nhttps://s3.postimg.org/d060j77k3/Jean_Claude_Van_Johnson_S01_E00_Pilot_1080p_AMZN.jpg \nhttps://s3.postimg.org/3tnpvx2bn/Jean_Claude_Van_Johnson_S01_E00_Pilot_1080p_AMZN.jpg \nhttps://s3.postimg.org/3uxnpc45f/Jean_Claude_Van_Johnson_S01_E00_Pilot_1080p_AMZN.jpg\r\n\r\n\r\nSource:  Jean Claude Van Johnson S01E00 Pilot 1080p AMZN WEBRip DD5.1 x264-RTN (910 MB)\r\n\r\n\r\n__--__--__--__--__--__--__--__--__--__--__--__--__--\r\n\r\n\r\nComplete name                            : Jean.Claude.Van.Johnson.S01E00.Pilot.1080p.AMZN.WEBRip.HEVC.DD5.1.x265.mkv\r\nFormat                                   : Matroska\r\nFormat version                           : Version 4 / Version 2\r\nFile size                                : 504 MiB\r\nDuration                                 : 30mn 49s\r\nOverall bit rate                         : 2 286 Kbps\r\nWriting application                      : Lavf57.25.100\r\nWriting library                          : Lavf57.25.100\r\n\r\nVideo\r\n\r\nID                                       : 1\r\nFormat                                   : V_MPEGH/ISO/HEVC\r\nCodec ID                                 : V_MPEGH/ISO/HEVC\r\nDuration                                 : 30mn 49s\r\nBit rate                                 : 1 857 Kbps\r\nWidth                                    : 1 920 pixels\r\nHeight                                   : 1 080 pixels\r\nDisplay aspect ratio                     : 16:9\r\nFrame rate                               : 25.000 fps\r\nBits/(Pixel*Frame)                       : 0.036\r\nStream size                              : 409 MiB (81%)\r\nWriting library                          : Lavc57.48.101 libx265\r\nDefault                                  : Yes\r\nForced                                   : No\r\nDURATION                                 : 00:30:49.731000000\r\nNUMBER_OF_FRAMES                         : 44348\r\nNUMBER_OF_BYTES                          : 816272100\r\n_STATISTICS_WRITING_APP                  : mkvmerge v8.2.0 ('World of Adventure') 32bit\r\n_STATISTICS_WRITING_DATE_UTC             : 2016-08-19 11:32:21\r\n_STATISTICS_TAGS                         : BPS DURATION NUMBER_OF_FRAMES NUMBER_OF_BYTES\r\n\r\nAudio\r\n\r\nID                                       : 2\r\nFormat                                   : AC-3\r\nFormat/Info                              : Audio Coding 3\r\nMode extension                           : CM (complete main)\r\nFormat settings, Endianness              : Big\r\nCodec ID                                 : A_AC3\r\nDuration                                 : 30mn 49s\r\nBit rate mode                            : Constant\r\nBit rate                                 : 384 Kbps\r\nChannel(s)                               : 6 channels\r\nChannel positions                        : Front: L C R, Side: L R, LFE\r\nSampling rate                            : 48.0 KHz\r\nBit depth                                : 16 bits\r\nCompression mode                         : Lossy\r\nStream size                              : 84.7 MiB (17%)\r\nWriting library                          : Lavc57.24.102 ac3\r\nLanguage                                 : English\r\nDefault                                  : Yes\r\nForced                                   : No\r\nDURATION                                 : 00:30:49.727000000\r\nNUMBER_OF_FRAMES                         : 57801\r\nNUMBER_OF_BYTES                          : 147970560\r\n_STATISTICS_WRITING_APP                  : mkvmerge v8.2.0 ('World of Adventure') 32bit\r\n_STATISTICS_WRITING_DATE_UTC             : 2016-08-19 11:32:21\r\n_STATISTICS_TAGS                         : BPS DURATION NUMBER_OF_FRAMES NUMBER_OF_BYTES\r\n\r\nText\r\n\r\nID                                       : 3\r\nFormat                                   : ASS\r\nCodec ID                                 : S_TEXT/ASS\r\nCodec ID/Info                            : Advanced Sub Station Alpha\r\nCompression mode                         : Lossless\r\nWriting library                          : Lavc57.48.101 ssa\r\nLanguage                                 : English\r\nDefault                                  : Yes\r\nForced                                   : No\r\nDURATION                                 : 00:30:29.246000000\r\nNUMBER_OF_FRAMES                         : 589\r\nNUMBER_OF_BYTES                          : 14734\r\n_STATISTICS_WRITING_APP                  : mkvmerge v8.2.0 ('World of Adventure') 32bit\r\n_STATISTICS_WRITING_DATE_UTC             : 2016-08-19 11:32:21\r\n_STATISTICS_TAGS                         : BPS DURATION NUMBER_OF_FRAMES NUMBER_OF_BYTES\r\n\r\n__--__--__--__--__--__--__--__--__--__--__--__--__--\r\n\r\n\r\nIMDb: http://www.imdb.com/title/tt5655056\r\n\r\nAfter adding torrent with magnet link,\r\n\r\nplease add this  following trackers list to the torrent for better seeds.\r\n\r\n\r\nudp://tracker.coppersurfer.tk:6969/announce\r\n\r\nudp://tracker.opentrackr.org:1337/announce\r\n \nhttp://tracker.baravik.org:6970/announce\r\n \nhttp://tracker2.wasabii.com.tw:6969/announce\r\n\r\nudp://9.rarbg.me:2710/announce\r\n\r\n__--__--__--__--__--__--__--__--__--__--__--__--__--\r\n\r\n\r\n\r\nEnjoy!","torrent":{"xt":"urn:btih:4d54e699fa7132ca5942c88f8b559fd20260c415","amp;dn":"Jean+Claude+Van+Johnson+S01E00+Pilot+1080p+WEBRip+DD5.1+x265","amp;tr":["udp%3A%2F%2Ftracker.leechers-paradise.org%3A6969","udp%3A%2F%2Fzer0day.ch%3A1337","udp%3A%2F%2Fopen.demonii.com%3A1337","udp%3A%2F%2Ftracker.coppersurfer.tk%3A6969","udp%3A%2F%2Fexodus.desync.com%3A6969"],"infoHash":"4d54e699fa7132ca5942c88f8b559fd20260c415","infoHashBuffer":{"type":"Buffer","data":[77,84,230,153,250,113,50,202,89,66,200,143,139,85,159,210,2,96,196,21]},"announce":[],"urlList":[]}}